<svg width="18" height="16" viewBox="0 0 18 16" fill="none" xmlns="http://www.w3.org/2000/svg">
<g clip-path="url(#clip0_22002_3134)">
<path d="M17.25 2H4.5L4.25 0.59375C4.20833 0.427083 4.11979 0.286458 3.98438 0.171875C3.84896 0.057292 3.6875 0 3.5 0H0.375C0.270833 0 0.182292 0.036458 0.109375 0.109375C0.0364583 0.182292 0 0.270833 0 0.375V1.125C0 1.22917 0.0364583 1.31771 0.109375 1.39062C0.182292 1.46354 0.270833 1.5 0.375 1.5H2.875L5.0625 12.625C4.6875 13 4.5 13.4635 4.5 14.0156C4.5 14.5677 4.69271 15.0365 5.07812 15.4219C5.46354 15.8073 5.9375 16 6.5 16C7.0625 16 7.53646 15.8073 7.92188 15.4219C8.30729 15.0365 8.5 14.5625 8.5 14C8.5 13.6458 8.40625 13.3125 8.21875 13H12.7812C12.5938 13.3125 12.5 13.6458 12.5 14C12.5 14.5625 12.6927 15.0365 13.0781 15.4219C13.4635 15.8073 13.9375 16 14.5 16C15.0625 16 15.5365 15.8073 15.9219 15.4219C16.3073 15.0365 16.5 14.5625 16.5 14C16.5 13.4375 16.2917 12.9583 15.875 12.5625L15.9062 12.4062C15.9688 12.1771 15.9219 11.9688 15.7656 11.7812C15.6094 11.5938 15.4167 11.5 15.1875 11.5H6.375L6.0625 10H15.8438C16.0104 10 16.1615 9.94271 16.2969 9.82812C16.4323 9.71354 16.5208 9.57292 16.5625 9.40625L17.9688 2.90625C18.0312 2.67708 17.9844 2.46875 17.8281 2.28125C17.6719 2.09375 17.4792 2 17.25 2ZM6.5 14.75C6.29167 14.75 6.11458 14.6771 5.96875 14.5312C5.82292 14.3854 5.75 14.2083 5.75 14C5.75 13.7917 5.82292 13.6146 5.96875 13.4688C6.11458 13.3229 6.29167 13.25 6.5 13.25C6.70833 13.25 6.88542 13.3229 7.03125 13.4688C7.17708 13.6146 7.25 13.7917 7.25 14C7.25 14.2083 7.17708 14.3854 7.03125 14.5312C6.88542 14.6771 6.70833 14.75 6.5 14.75ZM14.5 14.75C14.2917 14.75 14.1146 14.6771 13.9688 14.5312C13.8229 14.3854 13.75 14.2083 13.75 14C13.75 13.7917 13.8229 13.6146 13.9688 13.4688C14.1146 13.3229 14.2917 13.25 14.5 13.25C14.7083 13.25 14.8854 13.3229 15.0312 13.4688C15.1771 13.6146 15.25 13.7917 15.25 14C15.25 14.2083 15.1771 14.3854 15.0312 14.5312C14.8854 14.6771 14.7083 14.75 14.5 14.75ZM15.2188 8.5H5.78125L4.8125 3.5H16.3125L15.2188 8.5Z" fill="#0A0A0A"/>
</g>
<defs>
<clipPath id="clip0_22002_3134">
<rect width="18" height="16" fill="white" transform="matrix(1 0 0 -1 0 16)"/>
</clipPath>
</defs>
</svg>
