<svg width="16" height="16" viewBox="0 0 16 16" fill="none" xmlns="http://www.w3.org/2000/svg">
<g clip-path="url(#clip0_22002_3138)">
<path d="M15.9062 14.6562L12.0938 10.8438C12.0312 10.7812 11.9479 10.75 11.8438 10.75H11.4062C11.9062 10.1667 12.2969 9.51042 12.5781 8.78125C12.8594 8.05208 13 7.29167 13 6.5C13 5.3125 12.7083 4.22396 12.125 3.23438C11.5417 2.24479 10.7552 1.45833 9.76562 0.875C8.77604 0.291667 7.6875 0 6.5 0C5.3125 0 4.22396 0.291667 3.23438 0.875C2.24479 1.45833 1.45833 2.24479 0.875 3.23438C0.291667 4.22396 0 5.3125 0 6.5C0 7.6875 0.291667 8.77604 0.875 9.76562C1.45833 10.7552 2.24479 11.5417 3.23438 12.125C4.22396 12.7083 5.3125 13 6.5 13C7.29167 13 8.05208 12.8594 8.78125 12.5781C9.51042 12.2969 10.1667 11.9062 10.75 11.4062V11.8438C10.75 11.9271 10.7812 12.0104 10.8438 12.0938L14.6562 15.875C14.7188 15.9583 14.8021 16 14.9062 16C15.0104 16 15.1042 15.9583 15.1875 15.875L15.9062 15.1875C15.9688 15.1042 16 15.0104 16 14.9062C16 14.8021 15.9688 14.7188 15.9062 14.6562ZM6.5 11.5C5.60417 11.5 4.77083 11.276 4 10.8281C3.22917 10.3802 2.61979 9.77083 2.17188 9C1.72396 8.22917 1.5 7.39583 1.5 6.5C1.5 5.60417 1.72396 4.77083 2.17188 4C2.61979 3.22917 3.22917 2.61979 4 2.17188C4.77083 1.72396 5.60417 1.5 6.5 1.5C7.39583 1.5 8.22917 1.72396 9 2.17188C9.77083 2.61979 10.3802 3.22917 10.8281 4C11.276 4.77083 11.5 5.60417 11.5 6.5C11.5 7.39583 11.276 8.22917 10.8281 9C10.3802 9.77083 9.77083 10.3802 9 10.8281C8.22917 11.276 7.39583 11.5 6.5 11.5Z" fill="#333333"/>
</g>
<defs>
<clipPath id="clip0_22002_3138">
<rect width="16" height="16" fill="white" transform="matrix(1 0 0 -1 0 16)"/>
</clipPath>
</defs>
</svg>
