<svg width="50" height="51" viewBox="0 0 50 51" fill="none" xmlns="http://www.w3.org/2000/svg">
<rect x="1" y="1.28125" width="48" height="48" rx="24" stroke="#666666" stroke-width="2"/>
<g clip-path="url(#clip0_22002_3981)">
<path d="M25 21.2891C24.1927 21.2891 23.444 21.4909 22.7539 21.8945C22.0638 22.2982 21.5169 22.8451 21.1133 23.5352C20.7096 24.2253 20.5078 24.974 20.5078 25.7812C20.5078 26.5885 20.7096 27.3372 21.1133 28.0273C21.5169 28.7174 22.0638 29.2643 22.7539 29.668C23.444 30.0716 24.1927 30.2734 25 30.2734C25.8073 30.2734 26.556 30.0716 27.2461 29.668C27.9362 29.2643 28.4831 28.7174 28.8867 28.0273C29.2904 27.3372 29.4922 26.5885 29.4922 25.7812C29.4922 24.974 29.2904 24.2253 28.8867 23.5352C28.4831 22.8451 27.9362 22.2982 27.2461 21.8945C26.556 21.4909 25.8073 21.2891 25 21.2891ZM25 28.7109C24.1927 28.7109 23.5026 28.4245 22.9297 27.8516C22.3568 27.2786 22.0703 26.5885 22.0703 25.7812C22.0703 24.974 22.3568 24.2839 22.9297 23.7109C23.5026 23.138 24.1927 22.8516 25 22.8516C25.8073 22.8516 26.4974 23.138 27.0703 23.7109C27.6432 24.2839 27.9297 24.974 27.9297 25.7812C27.9297 26.5885 27.6432 27.2786 27.0703 27.8516C26.4974 28.4245 25.8073 28.7109 25 28.7109ZM30.7422 21.0938C30.7161 21.3802 30.6055 21.6276 30.4102 21.8359C30.2148 22.0443 29.974 22.1484 29.6875 22.1484C29.401 22.1484 29.1536 22.0443 28.9453 21.8359C28.737 21.6276 28.6328 21.3802 28.6328 21.0938C28.6328 20.8073 28.737 20.5599 28.9453 20.3516C29.1536 20.1432 29.401 20.0391 29.6875 20.0391C29.974 20.0391 30.2214 20.1432 30.4297 20.3516C30.638 20.5599 30.7422 20.8073 30.7422 21.0938ZM33.7109 22.1484C33.6589 21.3932 33.5417 20.7422 33.3594 20.1953C33.125 19.5443 32.7669 18.9779 32.2852 18.4961C31.8034 18.0143 31.237 17.6562 30.5859 17.4219C30.0391 17.2396 29.3945 17.1289 28.6523 17.0898C27.9102 17.0508 26.6927 17.0312 25 17.0312C23.3073 17.0312 22.0898 17.0508 21.3477 17.0898C20.6055 17.1289 19.9609 17.2396 19.4141 17.4219C18.763 17.6562 18.1966 18.0143 17.7148 18.4961C17.2331 18.9779 16.875 19.5443 16.6406 20.1953C16.4583 20.7422 16.3477 21.3867 16.3086 22.1289C16.2695 22.8711 16.25 24.0885 16.25 25.7812C16.25 27.474 16.2695 28.6914 16.3086 29.4336C16.3477 30.1758 16.4583 30.8203 16.6406 31.3672C16.875 32.0182 17.2331 32.5846 17.7148 33.0664C18.1966 33.5482 18.763 33.8932 19.4141 34.1016C19.9609 34.3099 20.6055 34.4336 21.3477 34.4727C22.0898 34.5117 23.3073 34.5312 25 34.5312C26.6927 34.5312 27.9102 34.5117 28.6523 34.4727C29.3945 34.4336 30.0391 34.3229 30.5859 34.1406C31.237 33.9062 31.8034 33.5482 32.2852 33.0664C32.7669 32.5846 33.125 32.0182 33.3594 31.3672C33.5417 30.8203 33.6523 30.1758 33.6914 29.4336C33.7305 28.6914 33.75 27.474 33.75 25.7812C33.75 24.0885 33.737 22.8776 33.7109 22.1484ZM31.8359 30.9375C31.5234 31.7188 30.9635 32.2786 30.1562 32.6172C29.7396 32.7734 29.0365 32.8776 28.0469 32.9297C27.5 32.9557 26.6927 32.9688 25.625 32.9688H24.375C23.3333 32.9688 22.526 32.9557 21.9531 32.9297C20.9896 32.8776 20.2865 32.7734 19.8438 32.6172C19.0625 32.3047 18.5026 31.7448 18.1641 30.9375C18.0078 30.4948 17.9036 29.7917 17.8516 28.8281C17.8255 28.2552 17.8125 27.4479 17.8125 26.4062V25.1562C17.8125 24.1146 17.8255 23.3073 17.8516 22.7344C17.9036 21.7448 18.0078 21.0417 18.1641 20.625C18.4766 19.8177 19.0365 19.2578 19.8438 18.9453C20.2865 18.7891 20.9896 18.6849 21.9531 18.6328C22.526 18.6068 23.3333 18.5938 24.375 18.5938H25.625C26.6667 18.5938 27.474 18.6068 28.0469 18.6328C29.0365 18.6849 29.7396 18.7891 30.1562 18.9453C30.9635 19.2578 31.5234 19.8177 31.8359 20.625C31.9922 21.0417 32.0964 21.7448 32.1484 22.7344C32.1745 23.2812 32.1875 24.0885 32.1875 25.1562V26.4062C32.1875 27.4479 32.1745 28.2552 32.1484 28.8281C32.0964 29.7917 31.9922 30.4948 31.8359 30.9375Z" fill="#00CCCC"/>
</g>
<defs>
<clipPath id="clip0_22002_3981">
<rect width="17.5" height="21" fill="white" transform="matrix(1 0 0 -1 16.25 36.2812)"/>
</clipPath>
</defs>
</svg>
