<svg width="50" height="51" viewBox="0 0 50 51" fill="none" xmlns="http://www.w3.org/2000/svg">
<rect x="1" y="1.28125" width="48" height="48" rx="24" stroke="#666666" stroke-width="2"/>
<path d="M32.9297 21.7188C32.9557 21.8229 32.9688 21.9922 32.9688 22.2266C32.9688 24.1016 32.513 25.9115 31.6016 27.6562C30.6641 29.5052 29.349 30.9766 27.6562 32.0703C25.8073 33.2943 23.6849 33.9062 21.2891 33.9062C18.9974 33.9062 16.901 33.2943 15 32.0703C15.2865 32.0964 15.612 32.1094 15.9766 32.1094C16.9401 32.1094 17.8516 31.9596 18.7109 31.6602C19.5703 31.3607 20.3646 30.9245 21.0938 30.3516C20.1823 30.3516 19.3815 30.0846 18.6914 29.5508C18.0013 29.0169 17.526 28.3464 17.2656 27.5391C17.526 27.5651 17.7734 27.5781 18.0078 27.5781C18.3724 27.5781 18.737 27.5391 19.1016 27.4609C18.1641 27.2526 17.3828 26.7708 16.7578 26.0156C16.1328 25.2604 15.8203 24.401 15.8203 23.4375V23.3594C16.3932 23.6979 17.0052 23.8802 17.6562 23.9062C17.1094 23.5156 16.6667 23.0208 16.3281 22.4219C15.9896 21.8229 15.8203 21.1654 15.8203 20.4492C15.8203 19.7331 16.0156 19.0495 16.4062 18.3984C17.4219 19.6745 18.6654 20.6901 20.1367 21.4453C21.6081 22.2005 23.1771 22.6172 24.8438 22.6953C24.7917 22.3828 24.7656 22.0703 24.7656 21.7578C24.7656 21.0286 24.9479 20.3451 25.3125 19.707C25.6771 19.069 26.1719 18.5677 26.7969 18.2031C27.4219 17.8385 28.099 17.6562 28.8281 17.6562C29.4271 17.6562 29.9805 17.7734 30.4883 18.0078C30.9961 18.2422 31.4453 18.5547 31.8359 18.9453C32.7734 18.763 33.6458 18.4375 34.4531 17.9688C34.1406 18.9323 33.5417 19.6875 32.6562 20.2344C33.4375 20.1302 34.2188 19.9089 35 19.5703C34.4271 20.4036 33.737 21.1198 32.9297 21.7188Z" fill="#00CCCC"/>
</svg>
