<svg width="50" height="51" viewBox="0 0 50 51" fill="none" xmlns="http://www.w3.org/2000/svg">
<rect x="1" y="1.28125" width="48" height="48" rx="24" stroke="#666666" stroke-width="2"/>
<g clip-path="url(#clip0_22002_3975)">
<path d="M28.2835 19.1037H30.1598V15.9404C29.4562 15.8362 28.5441 15.7841 27.4235 15.7841C26.0423 15.7841 24.9347 16.1942 24.1008 17.0143C23.2668 17.8344 22.8498 18.9865 22.8498 20.4705V23.2823H19.8398V26.8362H22.8498V35.7793H26.5244V26.8362H29.378L29.8471 23.2823H26.5244V20.822C26.5244 20.2492 26.6286 19.8326 26.8371 19.5723C27.0977 19.2599 27.5798 19.1037 28.2835 19.1037Z" fill="#00CCCC"/>
</g>
<defs>
<clipPath id="clip0_22002_3975">
<rect width="10.32" height="21" fill="white" transform="matrix(1 0 0 -1 19.8398 36.2812)"/>
</clipPath>
</defs>
</svg>
