<svg width="14" height="16" viewBox="0 0 14 16" fill="none" xmlns="http://www.w3.org/2000/svg">
<g clip-path="url(#clip0_22002_3136)">
<path d="M9.8125 9.5C9.54167 9.5 9.1875 9.57292 8.75 9.71875C8.45833 9.80208 8.21875 9.86458 8.03125 9.90625C7.71875 9.96875 7.375 10 7 10C6.625 10 6.28125 9.96875 5.96875 9.90625C5.78125 9.86458 5.54167 9.80208 5.25 9.71875C4.8125 9.57292 4.45833 9.5 4.1875 9.5C3.4375 9.5 2.73958 9.6875 2.09375 10.0625C1.44792 10.4375 0.9375 10.9479 0.5625 11.5938C0.1875 12.2396 0 12.9375 0 13.6875V14.5C0 14.9167 0.145833 15.2708 0.4375 15.5625C0.729167 15.8542 1.08333 16 1.5 16H12.5C12.9167 16 13.2708 15.8542 13.5625 15.5625C13.8542 15.2708 14 14.9167 14 14.5V13.6875C14 12.9375 13.8125 12.2396 13.4375 11.5938C13.0625 10.9479 12.5521 10.4375 11.9062 10.0625C11.2604 9.6875 10.5625 9.5 9.8125 9.5ZM12.5 14.5H1.5V13.6875C1.5 12.9583 1.76562 12.3281 2.29688 11.7969C2.82812 11.2656 3.45833 11 4.1875 11C4.29167 11 4.5 11.0417 4.8125 11.125C5.58333 11.375 6.31771 11.5 7.01562 11.5C7.71354 11.5 8.4375 11.375 9.1875 11.125C9.47917 11.0417 9.6875 11 9.8125 11C10.5417 11 11.1719 11.2656 11.7031 11.7969C12.2344 12.3281 12.5 12.9583 12.5 13.6875V14.5ZM7 9C7.8125 9 8.5625 8.79688 9.25 8.39062C9.9375 7.98438 10.4844 7.4375 10.8906 6.75C11.2969 6.0625 11.5 5.3125 11.5 4.5C11.5 3.6875 11.2969 2.9375 10.8906 2.25C10.4844 1.5625 9.9375 1.01562 9.25 0.609375C8.5625 0.203125 7.8125 0 7 0C6.1875 0 5.4375 0.203125 4.75 0.609375C4.0625 1.01562 3.51562 1.5625 3.10938 2.25C2.70312 2.9375 2.5 3.6875 2.5 4.5C2.5 5.3125 2.70312 6.0625 3.10938 6.75C3.51562 7.4375 4.0625 7.98438 4.75 8.39062C5.4375 8.79688 6.1875 9 7 9ZM7 1.5C7.54167 1.5 8.04167 1.63542 8.5 1.90625C8.95833 2.17708 9.32292 2.54167 9.59375 3C9.86458 3.45833 10 3.95833 10 4.5C10 5.04167 9.86458 5.54167 9.59375 6C9.32292 6.45833 8.95833 6.82292 8.5 7.09375C8.04167 7.36458 7.54167 7.5 7 7.5C6.45833 7.5 5.95833 7.36458 5.5 7.09375C5.04167 6.82292 4.67708 6.45833 4.40625 6C4.13542 5.54167 4 5.04167 4 4.5C4 3.95833 4.13542 3.45833 4.40625 3C4.67708 2.54167 5.04167 2.17708 5.5 1.90625C5.95833 1.63542 6.45833 1.5 7 1.5Z" fill="#333333"/>
</g>
<defs>
<clipPath id="clip0_22002_3136">
<rect width="14" height="16" fill="white" transform="matrix(1 0 0 -1 0 16)"/>
</clipPath>
</defs>
</svg>
