<svg width="64" height="64" viewBox="0 0 64 64" fill="none" xmlns="http://www.w3.org/2000/svg">
<g clip-path="url(#clip0_22002_3122)">
<path fill-rule="evenodd" clip-rule="evenodd" d="M35.4089 10.3138C29.8273 11.2724 23.2988 13.9193 19.7414 16.666C14.7152 20.5471 12.1362 25.0998 12.1282 30.1068C12.1217 34.1357 13.6065 37.0857 16.9756 39.7366L17.5372 40.1786L15.6106 40.7888C10.4614 42.4196 5.07498 43.3635 2.5369 43.0798C-1.95144 42.5784 -2.02947 40.706 2.26164 36.4772C3.53898 35.2183 5.73606 33.2889 7.14353 32.1897C10.6123 29.4808 10.6032 29.1093 7.10759 30.7165C0.293415 33.8488 -4.20402 37.7243 -4.74567 40.9303C-5.07325 42.8689 -3.77111 44.9923 -1.71166 45.8784C2.50301 47.6914 9.79763 46.8299 19.7448 43.3441C23.2106 42.1298 23.3527 42.1002 25.2045 42.2126C26.25 42.2761 27.716 42.2138 28.4621 42.0741C30.2656 41.7363 32.5928 40.6268 33.6459 39.6026C34.5517 38.7216 34.8011 38.0075 34.1008 38.3005C28.6807 40.5674 21.9425 39.5544 18.3425 35.9312C16.6341 34.2119 16.0267 32.8701 15.8945 30.5229C15.7642 28.2116 16.3236 26.1934 17.6553 24.1669C18.6574 22.6423 21.2808 20.0364 23.0142 18.8439C24.3525 17.923 28.3029 15.8889 28.7528 15.8889C28.9303 15.8889 28.5358 16.4546 27.8759 17.146C24.4545 20.7309 22.7633 24.5006 22.9387 28.1509C23.0495 30.451 23.7199 31.9379 25.3062 33.4C26.9002 34.8693 28.4155 35.5149 30.5464 35.6325C33.4475 35.7925 35.3655 34.8675 32.872 34.5108C29.5331 34.0333 26.5369 30.7602 26.5369 27.5904C26.5369 23.7977 31.0896 18.1251 39.1056 11.9297C40.2005 11.0836 41.0961 10.2974 41.0961 10.1828C41.0961 9.88386 37.4199 9.96848 35.4089 10.3138ZM10.5354 14.7908C10.1279 15.2351 10.13 15.2612 10.6086 15.7708L11.1005 16.2942L11.6109 15.8072L12.1212 15.3201L11.6685 14.8083C11.1312 14.2007 11.0773 14.2 10.5354 14.7908ZM56.4515 17.0547C53.9232 17.3698 48.5973 18.7761 44.7505 20.1447L41.2098 21.4043L38.2525 21.4409C35.8093 21.4714 35.0399 21.5685 33.827 21.9999C31.621 22.7845 29.1034 24.6733 29.6005 25.1706C29.6648 25.235 30.4606 25.0566 31.3689 24.7745C37.535 22.8591 44.7587 25.1481 47.2403 29.8036C48.6314 32.4133 48.4337 35.8436 46.7185 38.8581C45.73 40.5947 42.9874 43.3903 40.9112 44.7771C39.1579 45.9482 35.464 47.868 35.2929 47.6969C35.2428 47.6469 35.8482 46.8572 36.6382 45.9425C38.4848 43.8046 39.8192 41.5647 40.5581 39.3642C41.3482 37.0104 41.2674 34.1322 40.362 32.3726C39.079 29.8794 36.3168 28.1413 33.3865 27.9835C30.5377 27.8299 28.7051 28.7694 31.1667 29.1216C35.4307 29.7315 38.3465 34.1222 37.1062 38.0653C35.9972 41.5916 30.8999 47.2242 24.7072 51.7664C22.1848 53.6166 22.259 53.7542 25.6838 53.5763C30.3464 53.334 34.5479 52.1593 39.6174 49.6804C41.244 48.8851 43.1378 47.8113 43.826 47.2945C45.4443 46.079 47.9831 43.5871 48.9631 42.252C50.1549 40.6286 51.3014 38.008 51.6757 36.052C52.0974 33.8467 52.0967 33.0301 51.6711 31.0207C51.1522 28.5713 50.3414 27.1393 48.3589 25.171L46.5949 23.4203L48.3384 22.845C51.1499 21.9171 55.5097 20.9302 58.0699 20.642C60.6385 20.3531 63.2552 20.6047 64.215 21.2332C65.5379 22.0993 64.8861 23.9135 62.2657 26.6584C60.7172 28.2806 56.2848 32.0216 54.6906 33.0521C53.9449 33.534 54.0975 33.958 54.9408 33.7469C55.6387 33.5722 59.7676 31.5236 61.5218 30.4817C65.5458 28.0915 68.3357 25.0816 68.7388 22.6957C69.0462 20.8774 67.9128 18.851 66.0604 17.906C64.084 16.8975 60.3605 16.5677 56.4515 17.0547ZM7.1317 21.559C6.90603 21.9419 6.49656 22.3723 6.22175 22.5151C5.94672 22.6582 5.69443 22.7972 5.66076 22.824C5.62732 22.8511 6.04204 23.3234 6.58209 23.8739L7.56416 24.8746L8.54713 23.8753C9.41614 22.9915 9.48438 22.8504 9.13564 22.6553C8.66201 22.3902 8.08033 21.7947 7.76912 21.2562C7.56734 20.9068 7.49546 20.9409 7.1317 21.559ZM56.2605 25.4827C55.853 25.927 55.8551 25.9531 56.3337 26.4627L56.8255 26.9862L57.336 26.4991L57.8463 26.0121L57.3936 25.5002C56.8562 24.8926 56.8023 24.8919 56.2605 25.4827ZM-4.5473 26.1827L-5 26.6945L-4.48975 27.1816L-3.97926 27.6686L-3.48743 27.1452L-2.99561 26.6217L-3.47106 26.1463C-4.05365 25.5637 -3.99837 25.5619 -4.5473 26.1827ZM41.6764 29.1018C41.2367 29.5447 41.2371 29.5527 41.7142 30.0297L42.1953 30.5111L42.7743 30.0559L43.353 29.6005L42.8355 29.1143C42.2199 28.536 42.2381 28.536 41.6764 29.1018ZM21.1836 33.6409C20.7755 34.092 20.7773 34.1168 21.2621 34.6016L21.7596 35.0988L22.2571 34.6016C22.7419 34.1168 22.7437 34.092 22.3356 33.6409C22.1052 33.3863 21.8461 33.1779 21.7596 33.1779C21.6732 33.1779 21.4141 33.3863 21.1836 33.6409ZM67.4806 36.4808L66.9888 37.0043L67.4902 37.5057L67.9913 38.0068L68.4957 37.4693L69 36.9315L68.4863 36.4444L67.9724 35.9574L67.4806 36.4808ZM6.59961 37.181L6.11256 37.6949L6.63601 38.1868L7.15946 38.6786L7.66084 38.1772L8.162 37.6761L7.62444 37.1717L7.08666 36.6674L6.59961 37.181ZM55.4695 39.7389C54.5488 40.6643 54.5131 40.7458 54.9008 41.0397C55.128 41.2119 55.3687 41.3563 55.4356 41.3602C55.5025 41.3643 55.7434 41.6828 55.9711 42.0682L56.3849 42.7686L56.9384 41.9544C57.2425 41.5065 57.5646 41.1384 57.654 41.1366C57.7434 41.1346 57.9452 41.0513 58.1024 40.9514C58.309 40.8204 58.119 40.4889 57.42 39.7605L56.4515 38.7514L55.4695 39.7389ZM52.3247 47.873L51.8376 48.3869L52.3611 48.8787L52.8845 49.3705L53.3859 48.8691L53.8871 48.368L53.3495 47.8636L52.8117 47.3593L52.3247 47.873Z" fill="#007373"/>
</g>
<defs>
<clipPath id="clip0_22002_3122">
<rect width="64" height="64" fill="white"/>
</clipPath>
</defs>
</svg>
