<svg width="90" height="91" viewBox="0 0 90 91" fill="none" xmlns="http://www.w3.org/2000/svg">
<path d="M12.1851 86.265C7.40817 86.265 3.53125 82.3881 3.53125 77.6112V69.2343H49.2236V77.6112C49.2236 81.142 50.9543 84.3266 53.5851 86.265H12.1851ZM85.5697 18.3496H71.6543V10.8727C71.6543 7.20349 74.6313 4.22656 78.3005 4.22656H78.439C82.3851 4.22656 85.5697 7.41118 85.5697 11.4266V18.3496Z" fill="#97F2EF"/>
<path d="M87.7155 11.4282C87.7155 6.30511 83.5617 2.08203 78.4386 2.08203H78.3001H18.6232C12.7386 2.15126 7.96169 6.92819 7.96169 12.882V67.0205H2.49246C1.86938 67.0205 1.38477 67.5051 1.38477 68.1282V77.5436C1.38477 83.4974 6.23092 88.3436 12.1848 88.3436H60.0232C60.0232 88.3436 60.0232 88.3436 60.0925 88.3436H60.9232C66.8078 88.2743 71.5848 83.4974 71.5848 77.5436V20.4974H86.6078M12.1848 86.2666C7.40784 86.2666 3.53092 82.3897 3.53092 77.6128V69.2359H49.2232V77.6128C49.2232 81.1436 50.954 84.3282 53.5848 86.2666H12.1848ZM69.4386 77.5436C69.4386 82.2513 65.6309 86.1282 60.854 86.1974H60.0232C55.2463 86.1974 51.3694 82.3205 51.3694 77.5436V68.1282C51.3694 67.5051 50.8848 67.0205 50.2617 67.0205H10.0386V12.882C10.0386 8.17434 13.8463 4.29742 18.554 4.22819H72.4848C70.6155 5.82049 69.4386 8.24357 69.4386 10.8743V77.5436ZM85.5694 18.3513H71.654V10.8743C71.654 7.20511 74.6309 4.22819 78.3001 4.22819H78.4386C82.3848 4.22819 85.5694 7.4128 85.5694 11.4282V18.3513Z" fill="#666666"/>
<path d="M57.6692 27.768C53.8615 27.2141 50.6076 27.5603 47.8384 28.7372C47.6999 25.7603 46.6615 19.8757 40.8461 15.3757C40.4307 15.0987 39.9461 15.0987 39.5307 15.3757C33.7153 19.8757 32.6768 25.7603 32.5384 28.7372C29.8384 27.5603 26.5153 27.2141 22.7076 27.768C22.1538 27.8372 21.8076 28.3218 21.8076 28.8064C21.8076 38.568 29.4922 46.5987 39.1153 47.1526V58.2987C39.1153 58.9218 39.5999 59.4064 40.223 59.4064C40.8461 59.4064 41.3307 58.9218 41.3307 58.2987V47.2218C50.9538 46.668 58.6384 38.6372 58.6384 28.8757C58.6384 28.3218 58.223 27.8372 57.6692 27.768ZM39.1153 45.0757C31.0153 44.5218 24.4384 38.0141 24.023 29.8449C28.4538 29.4295 31.9153 30.3295 34.4768 32.5449C38.6307 36.1449 39.0461 42.2372 39.1153 43.3449C39.1153 43.4141 39.1153 43.4834 39.1153 43.5526C39.1153 43.6218 39.1153 43.6218 39.1153 43.691V45.0757ZM40.223 37.4603C39.4615 35.2449 38.1461 32.7526 35.9307 30.8141C35.5153 30.468 35.0999 30.191 34.6845 29.8449C34.6153 28.1141 34.823 22.1603 40.223 17.591C45.623 22.1603 45.8307 28.1141 45.7615 29.8449C45.3461 30.1218 44.9307 30.468 44.5153 30.8141C42.2999 32.8218 40.9845 35.2449 40.223 37.4603ZM41.3307 45.0757V43.4834C41.3307 43.4834 41.3307 43.4141 41.3307 43.2757C41.3999 42.168 41.8153 36.0757 45.9692 32.4757C48.5307 30.2603 52.0615 29.3603 56.423 29.7757C55.9384 37.9449 49.4307 44.5218 41.3307 45.0757Z" fill="#666666"/>
<path d="M39.1157 45.0745C31.0157 44.5206 24.4388 38.0129 24.0234 29.8437C28.4542 29.4283 31.9157 30.3283 34.4773 32.5437C38.6311 36.1437 39.0465 42.236 39.1157 43.3437C39.1157 43.4129 39.1157 43.4822 39.1157 43.5514C39.1157 43.6206 39.1157 43.6206 39.1157 43.6898V45.0745ZM40.2234 37.4591C39.4619 35.2437 38.1465 32.7514 35.9311 30.8129C35.5157 30.4668 35.1004 30.1898 34.685 29.8437C34.6157 28.1129 34.8234 22.1591 40.2234 17.5898C45.6234 22.1591 45.8311 28.1129 45.7619 29.8437C45.3465 30.1206 44.9311 30.4668 44.5157 30.8129C42.3004 32.8206 40.985 35.2437 40.2234 37.4591ZM41.3311 45.0745V43.4822C41.3311 43.4822 41.3311 43.4129 41.3311 43.2745C41.4004 42.1668 41.8157 36.0745 45.9696 32.4745C48.5311 30.2591 52.0619 29.3591 56.4234 29.7745C55.9388 37.9437 49.4311 44.5206 41.3311 45.0745Z" fill="#97F2EF"/>
</svg>
