<svg width="90" height="90" viewBox="0 0 90 90" fill="none" xmlns="http://www.w3.org/2000/svg">
<path d="M56.1465 62.0327H31.085V45.625L43.7542 57.3942L56.1465 45.625V62.0327Z" fill="#6BD9DE"/>
<path d="M56.2155 44.582H31.2925C30.7386 44.582 30.3232 44.9282 30.3232 45.5513V62.5128C30.3232 63.0666 30.6694 63.4128 31.2925 63.4128H56.2155C56.7694 63.4128 57.1848 63.0666 57.1848 62.5128V45.5513C57.1848 44.9282 56.8386 44.582 56.2155 44.582ZM55.3156 60.9897L49.7079 53.3051L55.3156 47.9051V60.9897ZM41.954 57.2513C42.4386 57.7359 43.0617 57.9436 43.754 57.9436C44.4463 57.9436 45.1386 57.6666 45.6232 57.2513L48.4617 54.482L53.5848 61.5436H33.5079L39.1156 54.482L41.954 57.2513ZM54.1386 46.4513L44.3079 55.9359C44.1694 56.0743 43.9617 56.1436 43.754 56.1436C43.5463 56.1436 43.2694 56.0743 43.2002 55.9359L33.5079 46.4513H54.1386ZM37.8694 53.2359L32.3309 60.2974V47.9051L37.8694 53.2359Z" fill="#666666"/>
<path d="M59.4694 31.1523H28.1079C27.5541 31.1523 27.1387 31.4985 27.1387 32.1216V38.0062C27.1387 38.4216 27.4848 38.9754 28.1079 38.9754H59.4694C60.0233 38.9754 60.3694 38.6293 60.3694 38.0062V32.1216C60.3694 31.5677 60.0233 31.1523 59.4694 31.1523ZM58.5002 37.1062H29.0771V33.0908H58.5694L58.5002 37.1062Z" fill="#666666"/>
<path d="M71.1694 24.3676C71.7232 24.3676 72.0694 24.0215 72.0694 23.3984V16.1984C72.0694 15.6445 71.7232 15.2291 71.1694 15.2291H69.854V14.883C69.854 7.75222 58.4309 2.14453 43.8232 2.14453C29.2155 2.14453 17.7924 7.75222 17.7924 14.883V15.2291H16.477C15.9232 15.2291 15.5078 15.5753 15.5078 16.1984V23.3984C15.5078 23.9522 15.854 24.3676 16.477 24.3676H18.9001V77.883H16.477C15.9232 77.883 15.5078 78.2291 15.5078 78.783V85.8445C15.5078 86.3984 15.854 86.7445 16.477 86.7445H71.2386C71.7924 86.7445 72.1386 86.3984 72.1386 85.8445V78.6445C72.1386 78.0907 71.7924 77.7445 71.2386 77.7445H68.8155V24.3676H71.1694ZM19.5924 14.9522C19.5924 9.06761 30.6694 4.08299 43.754 4.08299C56.8386 4.08299 67.9155 9.06761 67.9155 14.9522V15.2984H19.5924V14.9522ZM70.2001 79.6138V84.9445H17.377V79.6138H70.2001ZM20.7001 77.7445V24.3676H66.9463V77.7445H20.7001ZM17.377 22.4984V17.1676H70.2694V22.4984H17.377Z" fill="#666666"/>
</svg>
