<svg width="90" height="90" viewBox="0 0 90 90" fill="none" xmlns="http://www.w3.org/2000/svg">
<path d="M23.6767 68.3311C23.746 68.2618 23.746 68.2618 23.8152 68.1926L54.346 19.108L57.046 14.8157C57.946 13.3618 58.2229 11.5618 57.8075 9.96953C57.3921 8.23876 56.4229 6.85415 54.9691 5.95415L51.2998 3.66953C50.3306 3.11569 49.1537 2.76953 47.9767 2.76953C45.7614 2.76953 43.7537 3.87722 42.5075 5.74645L39.8075 10.0388L9.34597 59.0541L9.13828 59.5388V59.6772L8.30751 75.6003V76.0849C8.30751 76.1542 8.23828 76.5003 8.23828 77.0542H10.1075C10.1075 76.8465 10.1075 76.6388 10.1075 76.4311V76.0157L23.2614 68.608M44.1691 6.78492C44.9306 5.46953 46.3844 4.63876 47.9075 4.63876C48.8075 4.63876 49.6383 4.91569 50.3306 5.4003L53.9998 7.68492C55.0383 8.30799 55.7998 9.34645 56.0075 10.4541C56.2844 11.7003 56.0767 12.8772 55.5229 13.8465L53.3767 17.4465L51.7152 16.4772L41.8152 10.3849L44.1691 6.78492ZM40.846 11.908L42.5075 12.8772L52.1998 18.9695L22.7075 66.5311L11.2844 59.4695L40.846 11.908ZM10.8691 61.408L21.1152 67.7772L10.1075 74.008L10.8691 61.408Z" fill="#666666"/>
<path d="M75.0458 78.5782C74.8381 78.2321 74.4919 78.0244 74.0765 78.0244C73.9381 78.0244 73.7996 78.0244 73.7304 78.0936C65.0765 82.5244 60.5765 83.4936 58.3612 83.4936C57.2535 83.4936 56.5612 83.2859 56.2842 83.0782L56.0073 82.8705L55.9381 82.5936C55.8688 82.109 55.5919 81.3475 54.8996 80.7244C53.7919 79.8244 51.9227 79.3398 49.3612 79.3398C45.1381 79.3398 38.9765 80.5859 31.0842 83.0782C26.7227 84.4629 22.915 85.1552 19.7996 85.1552C16.6842 85.1552 14.1919 84.4629 12.5304 83.0782C10.7996 81.6244 10.1765 79.8244 9.89962 76.8475V76.4321L9.96885 76.0859L8.23808 76.9859V77.2629C8.23808 77.4706 7.615 81.3475 11.4227 84.5321C13.3612 86.1936 16.2688 87.0936 19.9381 87.0936C23.1227 87.0936 27.1381 86.4013 31.7765 84.9475C39.6688 82.5244 45.6227 81.2782 49.6381 81.2782C51.3688 81.2782 52.6842 81.4859 53.515 81.9706C53.9996 82.1782 54.2073 82.5244 54.2073 82.8705V83.009C54.2765 83.5629 54.6919 84.3244 55.6612 84.7398C56.3535 85.0859 57.2535 85.2936 58.3612 85.2936C61.9612 85.2936 67.4304 83.4244 74.5611 79.7552C74.9765 79.5475 75.2535 78.9244 75.0458 78.5782Z" fill="#6BD9DE" stroke="#6BD9DE" stroke-width="0.173077" stroke-miterlimit="10"/>
<path d="M11.2842 59.4678L22.638 66.5293L52.1996 18.9678L42.5073 12.8755L40.8457 11.9062L11.2842 59.4678Z" fill="#6BD9DE"/>
</svg>
