<svg width="90" height="91" viewBox="0 0 90 91" fill="none" xmlns="http://www.w3.org/2000/svg">
<path d="M35.5844 44.1063C40.402 44.1063 44.3075 40.2009 44.3075 35.3832C44.3075 30.5656 40.402 26.6602 35.5844 26.6602C30.7668 26.6602 26.8613 30.5656 26.8613 35.3832C26.8613 40.2009 30.7668 44.1063 35.5844 44.1063Z" fill="#97F2EF"/>
<path d="M16.9614 69.7196C21.779 69.7196 25.6844 65.8141 25.6844 60.9965C25.6844 56.1789 21.779 52.2734 16.9614 52.2734C12.1437 52.2734 8.23828 56.1789 8.23828 60.9965C8.23828 65.8141 12.1437 69.7196 16.9614 69.7196Z" fill="#97F2EF"/>
<path d="M62.3077 82.7349C55.8 82.7349 50.4693 77.4041 50.4693 70.8965C50.4693 64.3888 55.8 59.058 62.3077 59.058C68.8154 59.058 74.1462 64.3888 74.1462 70.8965C74.1462 77.4041 68.8154 82.7349 62.3077 82.7349ZM56.9077 69.9965C56.7 69.9965 56.4923 70.0657 56.2846 70.2734C55.9385 70.6195 55.9385 71.1041 56.2846 71.4503L59.8846 75.0503C60.0231 75.1888 60.2308 75.3272 60.5077 75.3272C60.7154 75.3272 60.9231 75.258 61.1308 75.0503L68.3308 67.7811C68.4693 67.6426 68.6077 67.4349 68.6077 67.158C68.6077 66.9503 68.5385 66.7426 68.3308 66.5349C68.1923 66.3965 67.9846 66.258 67.7077 66.258C67.5693 66.258 67.3616 66.3272 67.0846 66.5349L60.5077 73.1118L57.4616 70.0657C57.3231 70.1349 57.1154 69.9965 56.9077 69.9965ZM15.3 65.4272C15.0231 65.4272 14.7462 65.2888 14.5385 65.0811L10.9385 61.4811C10.5231 61.0657 10.5231 60.3734 10.9385 59.8888C11.1462 59.6811 11.4231 59.5426 11.7 59.5426C11.977 59.5426 12.2539 59.6811 12.4616 59.8888L15.3 62.7272L21.7385 56.2888C22.0846 56.0118 22.3616 55.9426 22.5693 55.9426C22.8462 55.9426 23.1231 56.0811 23.3308 56.2888C23.7462 56.7041 23.7462 57.3965 23.3308 57.8811L16.1308 65.1503C15.9231 65.358 15.6462 65.4272 15.3 65.4272ZM33.3 40.5041C33.0231 40.5041 32.7462 40.3657 32.5385 40.158L28.9385 36.558C28.5231 36.1426 28.5231 35.4503 28.9385 34.9657C29.1462 34.758 29.4231 34.6195 29.7 34.6195C29.977 34.6195 30.2539 34.758 30.4616 34.9657L33.3 37.8041L39.7385 31.3657C40.0846 31.0888 40.3616 31.0195 40.5693 31.0195C40.8462 31.0195 41.1231 31.158 41.3308 31.3657C41.7462 31.7811 41.7462 32.4734 41.3308 32.958L34.1308 40.2272C33.9231 40.4349 33.6462 40.5041 33.3 40.5041Z" fill="#97F2EF"/>
<path d="M33.3001 40.3679C33.0232 40.3679 32.8155 40.2986 32.6078 40.0909L29.0078 36.4909C28.5924 36.0755 28.5924 35.5217 29.0078 35.1063C29.2155 34.8986 29.4232 34.8294 29.7001 34.8294C29.9771 34.8294 30.1848 34.8986 30.3924 35.1063L33.3001 38.014L39.8078 31.5063C40.0848 31.2986 40.3617 31.1602 40.5694 31.1602C40.8463 31.1602 41.054 31.2294 41.2617 31.4371C41.6771 31.8525 41.6771 32.4063 41.2617 32.8217L34.0617 40.0909C33.854 40.2986 33.5771 40.3679 33.3001 40.3679ZM60.5771 75.4678C60.3001 75.4678 60.0924 75.3986 59.8848 75.1909L56.2848 71.5909C55.8694 71.1755 55.8694 70.6217 56.2848 70.2063C56.4924 69.9986 56.7001 69.9294 56.9771 69.9294C57.254 69.9294 57.4617 69.9986 57.6694 70.2063L60.5771 73.114L67.0848 66.6063C67.3617 66.3986 67.6386 66.2602 67.8463 66.2602C68.1232 66.2602 68.3309 66.3294 68.5386 66.5371C68.954 66.9525 68.954 67.5063 68.5386 67.9217L61.3386 75.1909C61.0617 75.3986 60.854 75.4678 60.5771 75.4678ZM15.3001 65.2909C15.0232 65.2909 14.8155 65.2217 14.6078 65.014L11.0078 61.414C10.5924 60.9986 10.5924 60.4448 11.0078 60.0294C11.2155 59.8217 11.4232 59.7525 11.7001 59.7525C11.9771 59.7525 12.1848 59.8217 12.3924 60.0294L15.3001 62.9371L21.8078 56.4294C22.0848 56.2217 22.3617 56.0832 22.5694 56.0832C22.8463 56.0832 23.054 56.1525 23.2617 56.3602C23.6771 56.7755 23.6771 57.3294 23.2617 57.7448L16.0617 65.014C15.854 65.2217 15.5771 65.2909 15.3001 65.2909Z" fill="#666666"/>
<path d="M38.7003 60.7188H31.5695C30.9464 60.7188 30.3926 61.2034 30.3926 61.8264C30.3926 62.4495 30.9464 62.9341 31.5695 62.9341H38.7003C39.3233 62.9341 39.8772 62.4495 39.8772 61.8264C39.8772 61.2034 39.3233 60.7188 38.7003 60.7188Z" fill="#666666"/>
<path d="M38.7003 22.6445H31.5695C30.9464 22.6445 30.3926 23.1291 30.3926 23.7522C30.3926 24.3753 30.9464 24.8599 31.5695 24.8599H38.7003C39.3233 24.8599 39.8772 24.3753 39.8772 23.7522C39.8772 23.1291 39.3233 22.6445 38.7003 22.6445Z" fill="#666666"/>
<path d="M38.7003 48.0508H31.5695C30.9464 48.0508 30.3926 48.5354 30.3926 49.1585C30.3926 49.7815 30.9464 50.2662 31.5695 50.2662H38.7003C39.3233 50.2662 39.8772 49.7815 39.8772 49.1585C39.8772 48.5354 39.3233 48.0508 38.7003 48.0508Z" fill="#666666"/>
<path d="M56.8389 48.0508H49.7082C49.0851 48.0508 48.5312 48.5354 48.5312 49.1585C48.5312 49.7815 49.0851 50.2662 49.7082 50.2662H56.8389C57.462 50.2662 58.0159 49.7815 58.0159 49.1585C58.0159 48.5354 57.462 48.0508 56.8389 48.0508Z" fill="#666666"/>
<path d="M20.5616 35.3828H13.4308C12.8078 35.3828 12.2539 35.8674 12.2539 36.4905C12.2539 37.1136 12.8078 37.5982 13.4308 37.5982H20.5616C21.1847 37.5982 21.7385 37.1136 21.7385 36.4905C21.7385 35.8674 21.1847 35.3828 20.5616 35.3828Z" fill="#666666"/>
<path d="M20.5616 48.0508H13.4308C12.8078 48.0508 12.2539 48.5354 12.2539 49.1585C12.2539 49.7815 12.8078 50.2662 13.4308 50.2662H20.5616C21.1847 50.2662 21.7385 49.7815 21.7385 49.1585C21.7385 48.5354 21.1847 48.0508 20.5616 48.0508Z" fill="#666666"/>
<path d="M20.5616 22.6445H13.4308C12.8078 22.6445 12.2539 23.1291 12.2539 23.7522C12.2539 24.3753 12.8078 24.8599 13.4308 24.8599H20.5616C21.1847 24.8599 21.7385 24.3753 21.7385 23.7522C21.7385 23.1291 21.1847 22.6445 20.5616 22.6445Z" fill="#666666"/>
<path d="M57.2543 35.452C57.1159 35.3828 56.9774 35.3828 56.7697 35.3828H49.7082C49.0851 35.3828 48.5312 35.8674 48.5312 36.4905C48.5312 37.1136 49.0851 37.5982 49.7082 37.5982H56.8389C57.462 37.5982 58.0159 37.1136 58.0159 36.4905C58.0159 36.0059 57.7389 35.6597 57.2543 35.452Z" fill="#666666"/>
<path d="M74.9074 48.0508H67.8459C67.2228 48.0508 66.6689 48.5354 66.6689 49.1585C66.6689 49.7815 67.2228 50.2662 67.8459 50.2662H74.9766C75.5997 50.2662 76.1536 49.7815 76.1536 49.1585C76.1536 48.5354 75.5997 48.0508 74.9074 48.0508Z" fill="#666666"/>
<path d="M80.4463 8.17422H72.4848V5.68191C72.4848 5.05883 72.0002 4.57422 71.3771 4.57422C70.754 4.57422 70.2694 5.05883 70.2694 5.68191V8.17422H54.3463V5.68191C54.3463 5.05883 53.8617 4.57422 53.2386 4.57422C52.6155 4.57422 52.1309 5.05883 52.1309 5.68191V8.17422H36.2771V5.68191C36.2771 5.05883 35.7925 4.57422 35.1694 4.57422C34.5463 4.57422 34.0617 5.05883 34.0617 5.68191V8.17422H18.1386V5.68191C18.1386 5.05883 17.654 4.57422 17.0309 4.57422C16.4078 4.57422 15.9232 5.05883 15.9232 5.68191V8.17422H7.96169C4.36169 8.17422 1.38477 11.0819 1.38477 14.7511V69.0973C1.38477 72.6973 4.29246 75.6742 7.96169 75.6742H49.3617L49.5694 76.0896C51.6463 81.3511 56.7001 84.7435 62.3078 84.7435C67.9155 84.7435 72.9694 81.3511 75.1155 76.0896L75.3232 75.6742H80.4463C84.1848 75.4665 87.0232 72.6281 87.0232 69.0973V14.7511C87.0232 11.1511 84.0463 8.17422 80.4463 8.17422ZM62.3078 57.1204C54.6925 57.1204 48.5309 63.2819 48.5309 70.8973C48.5309 71.4511 48.6002 72.005 48.6694 72.6281L48.7386 73.3896H7.96169C5.53861 73.3896 3.66938 71.5204 3.66938 69.0973V14.7511C3.66938 12.3281 5.53861 10.4588 7.96169 10.4588H15.9232V12.9511C15.9232 13.5742 16.4078 14.0588 17.0309 14.0588C17.654 14.0588 18.1386 13.5742 18.1386 12.9511V10.4588H33.9925V12.9511C33.9925 13.5742 34.4771 14.0588 35.1002 14.0588C35.7232 14.0588 36.2078 13.5742 36.2078 12.9511V10.4588H52.0617V12.9511C52.0617 13.5742 52.5463 14.0588 53.1694 14.0588C53.7925 14.0588 54.2771 13.5742 54.2771 12.9511V10.4588H70.1309V12.9511C70.1309 13.5742 70.6155 14.0588 71.2386 14.0588C71.8617 14.0588 72.3463 13.5742 72.3463 12.9511V10.4588H80.3078C82.7309 10.4588 84.6002 12.3281 84.6002 14.7511V69.0973C84.6002 71.5204 82.7309 73.3896 80.3078 73.3896H75.8078L75.8771 72.6281C75.9463 72.005 76.0155 71.4511 76.0155 70.8973C76.154 63.2819 69.9232 57.1204 62.3078 57.1204ZM62.3078 82.4588C55.9386 82.4588 50.7463 77.2665 50.7463 70.8973C50.7463 64.5281 55.9386 59.3358 62.3078 59.3358C68.6771 59.3358 73.8694 64.5281 73.8694 70.8973C73.8694 77.2665 68.6771 82.4588 62.3078 82.4588Z" fill="#666666"/>
<path d="M67.7773 66.1211C67.5696 66.1211 67.2927 66.2596 66.9465 66.4672L60.508 72.9057L57.6696 70.0673C57.4619 69.8596 57.185 69.7211 56.908 69.7211C56.6311 69.7211 56.3542 69.8596 56.1465 70.0673C55.7311 70.4826 55.7311 71.1749 56.1465 71.6596L59.7465 75.2596C59.9542 75.4673 60.2311 75.6057 60.508 75.6057C60.785 75.6057 61.0619 75.4673 61.3388 75.2596L68.5388 67.9903C68.9542 67.5749 68.9542 66.8826 68.5388 66.398C68.4003 66.2596 68.1234 66.1211 67.7773 66.1211Z" fill="#666666"/>
<path d="M56.8389 22.6445H49.7082C49.0851 22.6445 48.5312 23.1291 48.5312 23.7522C48.5312 24.3753 49.0851 24.8599 49.7082 24.8599H56.8389C57.462 24.8599 58.0159 24.3753 58.0159 23.7522C58.0159 23.1291 57.462 22.6445 56.8389 22.6445Z" fill="#666666"/>
<path d="M67.8459 37.5982H74.9766C75.5997 37.5982 76.1536 37.1136 76.1536 36.4905C76.1536 35.8674 75.5997 35.3828 74.9766 35.3828H67.8459C67.2228 35.3828 66.6689 35.8674 66.6689 36.4905C66.6689 37.1136 67.1536 37.5982 67.8459 37.5982Z" fill="#666666"/>
<path d="M67.8459 24.9263H74.9766C75.5997 24.9263 76.1536 24.4417 76.1536 23.8186C76.1536 23.1956 75.5997 22.7109 74.9766 22.7109H67.8459C67.2228 22.7109 66.6689 23.1956 66.6689 23.8186C66.6689 24.4417 67.1536 24.9263 67.8459 24.9263Z" fill="#666666"/>
</svg>
