<svg width="90" height="90" viewBox="0 0 90 90" fill="none" xmlns="http://www.w3.org/2000/svg">
<path d="M64.869 11.9072C58.4305 4.77638 46.3152 2.21484 39.7382 2.21484C39.4613 2.21484 39.1844 2.21484 38.9075 2.21484C23.7459 2.90715 13.4998 8.72254 6.50747 20.561C0.0690081 31.361 -0.623299 45.4148 4.63824 56.4225C8.09978 63.4148 14.0536 68.6072 21.4613 71.0995C23.2613 71.6533 25.1998 71.9995 27.1382 71.9995H27.3459C31.9152 71.9995 36.3459 70.4072 39.8767 67.5687C43.5459 64.661 45.4844 60.0225 44.8613 55.3841C43.5459 45.761 48.3921 42.7148 57.8075 40.4995C64.1767 39.1841 68.8844 33.9918 69.5767 27.5533C70.3382 21.3918 68.7459 16.1302 64.869 11.9072ZM42.7152 55.661C43.269 59.6072 41.6075 63.5533 38.4921 65.9764C35.3075 68.5379 31.3613 69.9225 27.2767 69.9225C25.5459 69.9225 23.7459 69.6456 22.0844 69.161C15.2305 66.8764 9.69209 62.0302 6.50747 55.5225C1.52285 45.1379 2.21516 31.8456 8.23824 21.5995C14.8152 10.4533 24.5767 4.91484 38.8382 4.29177H38.9075C39.1844 4.29177 39.3921 4.29177 39.669 4.29177C45.8998 4.29177 57.2536 6.71484 63.2767 13.2918C66.7382 17.0302 68.0536 21.7379 67.3613 27.3456C66.5998 33.161 62.9998 37.1764 57.1844 38.4918C49.0152 40.4302 41.0536 43.4072 42.7152 55.661Z" fill="#666666"/>
<path d="M42.5072 11.7705C41.261 10.5243 39.5995 9.83203 37.7995 9.83203C34.1302 9.83203 31.1533 12.809 31.1533 16.4782C31.1533 18.2782 31.8456 19.9397 33.0918 21.1859C34.3379 22.432 35.9995 23.1243 37.7995 23.1243C38.2841 23.1243 38.6995 23.0551 39.1149 22.9859C42.161 22.3628 44.3764 19.5936 44.3764 16.4782C44.4456 14.6782 43.7533 13.0166 42.5072 11.7705Z" fill="#6BD9DE"/>
<path d="M60.5769 22.5701C59.9538 19.524 57.2538 17.3086 54.1384 17.3086C50.5384 17.3086 47.5615 20.2855 47.5615 23.8855C47.5615 25.6163 48.2538 27.2778 49.5 28.524C50.7461 29.7701 52.4077 30.4624 54.1384 30.4624C54.5538 30.4624 55.0384 30.3932 55.4538 30.324C57.1846 29.9778 58.6384 28.9394 59.6077 27.4855C60.5769 26.0317 60.9231 24.3009 60.5769 22.5701Z" fill="#6BD9DE"/>
<path d="M28.5925 22.5701C27.9695 19.524 25.2695 17.3086 22.1541 17.3086C18.5541 17.3086 15.5771 20.2855 15.5771 23.8855C15.5771 27.5547 18.5541 30.4624 22.1541 30.5317C22.5695 30.5317 23.0541 30.4624 23.4695 30.3932C27.0002 29.6317 29.3541 26.1009 28.5925 22.5701Z" fill="#6BD9DE"/>
<path d="M22.5691 40.7069C21.946 37.6607 19.246 35.4453 16.1306 35.4453C12.5306 35.4453 9.55371 38.4222 9.55371 42.0222C9.55371 45.6915 12.5306 48.5992 16.1306 48.6684C16.546 48.6684 17.0306 48.5992 17.446 48.5299C20.9768 47.7684 23.2614 44.2376 22.5691 40.7069Z" fill="#6BD9DE"/>
<path d="M27.3455 49.707C23.3301 49.707 20.1455 52.9609 20.1455 56.907C20.1455 60.9224 23.3994 64.107 27.3455 64.107C27.8301 64.107 28.3147 64.0378 28.7994 63.9686C32.1224 63.2763 34.5455 60.2993 34.5455 56.907C34.5455 52.9609 31.2917 49.707 27.3455 49.707Z" fill="#6BD9DE"/>
<path d="M51.4383 74.4922L53.7229 76.7768L56.4229 78.4383L57.8075 80.446L53.9999 82.3845L45.346 82.8691L43.6152 81.346L43.8229 79.9614L49.7768 77.0537L51.4383 74.4922Z" fill="#6BD9DE"/>
<path d="M49.8456 83.8371C47.9764 83.8371 46.1764 83.5602 44.3764 83.0756C43.4071 82.8679 42.7841 81.9679 42.7148 80.9987C42.7148 80.0987 43.3379 79.2679 44.1687 78.991C46.1764 78.3679 48.7379 77.1218 49.9841 74.6295C52.6148 69.3679 54.2072 66.4602 60.2302 64.3833C63.1379 57.0448 77.4687 21.5987 84.461 18.691C84.8072 18.5525 85.1533 18.4141 85.5687 18.4141C85.9148 18.4141 86.1918 18.4833 86.5379 18.6218C87.161 18.8987 87.6456 19.4525 87.8533 20.0756C90.0687 26.791 70.4072 60.5756 66.3918 67.4987C66.5995 71.4448 63.6225 80.0294 57.0456 82.4525C54.6918 83.3525 52.2687 83.8371 49.8456 83.8371ZM60.9225 66.391C55.661 68.191 54.4148 70.4064 51.9225 75.5987C50.7456 78.091 48.2533 79.9602 44.861 80.9987C44.861 80.9987 44.861 81.0679 44.9302 81.0679C46.5225 81.5525 48.1841 81.7602 49.8456 81.7602C52.061 81.7602 54.2072 81.3448 56.2841 80.5141C61.1995 78.7141 64.3148 71.791 64.2456 67.9141L60.9225 66.391ZM64.7995 65.9064C66.3918 63.2064 67.9841 60.4371 69.5764 57.5987L65.9764 55.8679C64.3148 59.7448 63.0687 62.791 62.3072 64.7295L64.7995 65.9064ZM70.5456 55.7987C80.9995 36.8987 86.6764 23.8141 85.7072 20.8371C85.7072 20.7679 85.6379 20.6987 85.5687 20.6294H85.4995C85.4302 20.6294 85.361 20.6294 85.1533 20.6987H85.0841C81.8995 22.0833 75.1841 34.1987 66.6687 53.9987L70.5456 55.7987Z" fill="#666666"/>
<path d="M87.5074 20.2134C87.369 19.5904 86.8844 19.1057 86.3305 18.898C85.7074 18.6904 85.0844 18.6904 84.4613 18.9673C77.469 21.875 62.5844 58.8442 60.2997 64.5904C54.3459 66.6673 52.7536 69.3673 50.1921 74.7673C48.9459 77.3288 46.3151 78.575 44.2382 79.198C43.4074 79.4057 42.8536 80.1673 42.9228 80.998C42.9228 81.898 43.5459 82.6596 44.3767 82.8673C46.1074 83.3519 47.9767 83.6288 49.7767 83.6288C52.1997 83.6288 54.5536 83.1442 56.8382 82.3134C63.1382 79.9596 66.2536 71.5827 66.0459 67.498C69.0228 62.4442 89.7228 26.9288 87.5074 20.2134ZM85.1536 20.4904C85.4997 20.3519 85.6382 20.4211 85.7074 20.4211C85.7767 20.4211 85.8459 20.4904 85.9151 20.7673C87.0921 24.4365 78.8536 41.2596 70.6151 56.075L66.4613 54.0673C72.4844 40.2211 80.9997 22.2211 85.1536 20.4904ZM65.8382 55.5904L69.7844 57.5288C68.0536 60.575 66.3921 63.5519 64.7997 66.2519L61.9613 64.8673C63.069 62.375 64.3844 59.1211 65.8382 55.5904ZM44.6536 80.998C44.6536 80.9288 50.5382 77.9519 51.7844 75.4596C54.3459 70.198 55.5921 67.9134 60.9921 66.1134L64.4536 67.775C64.5921 71.4442 61.5459 78.7827 56.3536 80.7211C56.3536 80.7211 53.169 83.4211 46.5921 82.2442C40.0151 80.998 44.4459 82.2442 44.4459 82.2442L44.6536 80.998Z" fill="#666666"/>
<path d="M56.7691 79.1304C56.6306 78.715 56.2153 78.5073 55.7306 78.5073C55.6614 78.5073 55.5922 78.5073 55.5922 78.5073C55.4537 78.5073 55.3845 78.5073 55.3153 78.5073C53.9999 78.5073 52.7537 77.8842 51.9922 76.915C51.023 75.5996 50.746 73.938 51.2306 72.415C51.3691 71.9996 51.7845 71.7227 52.1999 71.7227C52.3383 71.7227 52.4076 71.7227 52.546 71.7919C53.0999 71.9303 53.3768 72.5534 53.2383 73.038C52.9614 73.938 53.0999 74.9073 53.6537 75.6688C54.0691 76.1534 54.6922 76.4996 55.3153 76.4996C55.3845 76.4996 55.4537 76.4996 55.4537 76.4996C55.5922 76.4996 55.6614 76.4996 55.7999 76.4996C57.1153 76.4996 58.3614 77.3303 58.7768 78.5765C59.1922 80.0996 58.5691 81.6919 57.1845 82.4534C57.046 82.5919 56.8383 82.5919 56.6306 82.5919C56.0768 82.5919 55.5922 82.1073 55.5922 81.5534" fill="#666666"/>
<path d="M38.5618 82.0385C38.4926 81.4847 38.0772 80.5847 36.2772 80.377L34.6156 80.2385C31.2233 79.9616 28.5233 79.7539 26.3079 79.7539C22.2926 79.7539 20.2849 80.4462 19.8002 82.0385C19.4541 83.2154 19.8002 84.4616 20.631 85.2231C21.9464 86.4693 24.5079 87.1616 27.6926 87.1616H27.9695C29.9079 87.1616 31.7772 86.8847 33.6464 86.2616C35.5849 85.5001 38.8387 84.0462 38.5618 82.0385Z" fill="#6BD9DE"/>
<path d="M12.0463 77.1211C11.9078 77.1211 11.7693 77.1211 11.6309 77.1211C10.9386 77.1211 9.69241 77.398 9.2078 79.2672C8.93087 80.3057 9.06934 81.4134 9.62318 82.3134C10.177 83.1442 11.077 83.698 12.0463 83.8365C12.1155 83.8365 12.1847 83.8365 12.254 83.8365C13.8463 83.8365 14.954 81.6903 15.1616 80.5134C15.4386 78.6442 13.2232 77.3288 12.0463 77.1211Z" fill="#6BD9DE"/>
</svg>
