<svg width="14" height="11" viewBox="0 0 14 11" fill="none" xmlns="http://www.w3.org/2000/svg">
<path d="M0 1.78125C0 1.28906 0.16862 0.874349 0.505859 0.537109C0.843099 0.19987 1.25781 0.03125 1.75 0.03125H12.25C12.724 0.03125 13.1341 0.19987 13.4805 0.537109C13.8268 0.874349 14 1.28906 14 1.78125V8.78125C14 9.25521 13.8268 9.66536 13.4805 10.0117C13.1341 10.3581 12.724 10.5312 12.25 10.5312H1.75C1.25781 10.5312 0.843099 10.3581 0.505859 10.0117C0.16862 9.66536 0 9.25521 0 8.78125V1.78125ZM0.875 1.78125V2.875L6.23438 6.78516C6.45312 6.96745 6.70833 7.05859 7 7.05859C7.29167 7.05859 7.54688 6.96745 7.76562 6.78516L13.125 2.875V1.78125C13.125 1.54427 13.0384 1.33919 12.8652 1.16602C12.6921 0.992839 12.487 0.90625 12.25 0.90625H1.72266C1.48568 0.90625 1.2806 0.992839 1.10742 1.16602C0.934245 1.33919 0.847656 1.54427 0.847656 1.78125H0.875ZM0.875 3.96875V8.78125C0.875 9.01823 0.961589 9.22331 1.13477 9.39648C1.30794 9.56966 1.51302 9.65625 1.75 9.65625H12.25C12.487 9.65625 12.6921 9.56966 12.8652 9.39648C13.0384 9.22331 13.125 9.01823 13.125 8.78125V3.96875L8.28516 7.49609C7.90234 7.78776 7.47396 7.93359 7 7.93359C6.52604 7.93359 6.09766 7.78776 5.71484 7.49609L0.875 3.96875Z" fill="#333333"/>
</svg>
