<svg width="11" height="15" viewBox="0 0 11 15" fill="none" xmlns="http://www.w3.org/2000/svg">
<path d="M4.70312 14.0078C4.22917 13.3151 3.61849 12.4401 2.87109 11.3828C1.95964 10.0703 1.35807 9.1862 1.06641 8.73047C0.647135 8.07422 0.364583 7.52279 0.21875 7.07617C0.0729167 6.62956 0 6.11458 0 5.53125C0 4.58333 0.236979 3.70833 0.710938 2.90625C1.1849 2.10417 1.82292 1.46615 2.625 0.992188C3.42708 0.518229 4.30208 0.28125 5.25 0.28125C6.19792 0.28125 7.07292 0.518229 7.875 0.992188C8.67708 1.46615 9.3151 2.10417 9.78906 2.90625C10.263 3.70833 10.5 4.58333 10.5 5.53125C10.5 6.11458 10.4271 6.62956 10.2812 7.07617C10.1354 7.52279 9.85286 8.07422 9.43359 8.73047C9.14193 9.1862 8.54036 10.0703 7.62891 11.3828L5.79688 14.0078C5.66927 14.1901 5.48698 14.2812 5.25 14.2812C5.01302 14.2812 4.83073 14.1901 4.70312 14.0078ZM5.25 7.71875C5.85156 7.71875 6.36654 7.50456 6.79492 7.07617C7.22331 6.64779 7.4375 6.13281 7.4375 5.53125C7.4375 4.92969 7.22331 4.41471 6.79492 3.98633C6.36654 3.55794 5.85156 3.34375 5.25 3.34375C4.64844 3.34375 4.13346 3.55794 3.70508 3.98633C3.27669 4.41471 3.0625 4.92969 3.0625 5.53125C3.0625 6.13281 3.27669 6.64779 3.70508 7.07617C4.13346 7.50456 4.64844 7.71875 5.25 7.71875Z" fill="#666666"/>
</svg>
